<mxfile host="Electron" agent="Mozilla/5.0 (Windows NT 10.0; Win64; x64) AppleWebKit/537.36 (KHTML, like Gecko) draw.io/24.7.17 Chrome/128.0.6613.36 Electron/32.0.1 Safari/537.36" version="24.7.17">
  <diagram name="Page-1" id="mFsZurnEb-Mp7SvgZmcJ">
    <mxGraphModel dx="2731" dy="4845" grid="1" gridSize="10" guides="1" tooltips="1" connect="1" arrows="1" fold="1" page="0" pageScale="1" pageWidth="850" pageHeight="1100" math="0" shadow="0">
      <root>
        <mxCell id="0" />
        <mxCell id="1" parent="0" />
        <mxCell id="oQEaSorUT63Bz6y4s9D--3" value="" style="edgeStyle=orthogonalEdgeStyle;rounded=0;orthogonalLoop=1;jettySize=auto;html=1;" edge="1" parent="1" source="oQEaSorUT63Bz6y4s9D--1" target="oQEaSorUT63Bz6y4s9D--2">
          <mxGeometry relative="1" as="geometry" />
        </mxCell>
        <mxCell id="oQEaSorUT63Bz6y4s9D--1" value="เริ่ม" style="ellipse;whiteSpace=wrap;html=1;fillColor=default;strokeWidth=1;" vertex="1" parent="1">
          <mxGeometry x="240" y="-3330" width="180" height="80" as="geometry" />
        </mxCell>
        <mxCell id="oQEaSorUT63Bz6y4s9D--5" value="" style="edgeStyle=orthogonalEdgeStyle;rounded=0;orthogonalLoop=1;jettySize=auto;html=1;" edge="1" parent="1" source="oQEaSorUT63Bz6y4s9D--2" target="oQEaSorUT63Bz6y4s9D--4">
          <mxGeometry relative="1" as="geometry" />
        </mxCell>
        <mxCell id="oQEaSorUT63Bz6y4s9D--2" value="กำหนดตัวแปรเพื่อเก็บความสูง, ความยาว" style="rounded=0;whiteSpace=wrap;html=1;" vertex="1" parent="1">
          <mxGeometry x="247.5" y="-3210" width="165" height="60" as="geometry" />
        </mxCell>
        <mxCell id="oQEaSorUT63Bz6y4s9D--7" value="" style="edgeStyle=orthogonalEdgeStyle;rounded=0;orthogonalLoop=1;jettySize=auto;html=1;" edge="1" parent="1" source="oQEaSorUT63Bz6y4s9D--4" target="oQEaSorUT63Bz6y4s9D--6">
          <mxGeometry relative="1" as="geometry" />
        </mxCell>
        <mxCell id="oQEaSorUT63Bz6y4s9D--4" value="รับค่าความสูงและยาวจากผู้ใช่มาเก็บในตัวแปร" style="shape=parallelogram;perimeter=parallelogramPerimeter;whiteSpace=wrap;html=1;fixedSize=1;" vertex="1" parent="1">
          <mxGeometry x="207.5" y="-3100" width="245" height="60" as="geometry" />
        </mxCell>
        <mxCell id="oQEaSorUT63Bz6y4s9D--9" value="" style="edgeStyle=orthogonalEdgeStyle;rounded=0;orthogonalLoop=1;jettySize=auto;html=1;" edge="1" parent="1" source="oQEaSorUT63Bz6y4s9D--6" target="oQEaSorUT63Bz6y4s9D--8">
          <mxGeometry relative="1" as="geometry" />
        </mxCell>
        <mxCell id="oQEaSorUT63Bz6y4s9D--6" value="นำค่าความสูงและความยาวมาคำนวณ&lt;div&gt;ความสูง*&lt;span style=&quot;background-color: initial;&quot;&gt;ความยาว/2=&lt;/span&gt;&lt;span style=&quot;background-color: rgb(30, 30, 30); font-family: Consolas, &amp;quot;Courier New&amp;quot;, monospace; white-space: pre;&quot;&gt;&lt;font color=&quot;#ffffff&quot; style=&quot;font-size: 12px;&quot;&gt;พื้นที่สามเหลี่ยม&lt;/font&gt;&lt;/span&gt;&lt;/div&gt;" style="whiteSpace=wrap;html=1;" vertex="1" parent="1">
          <mxGeometry x="227.5" y="-2980" width="205" height="60" as="geometry" />
        </mxCell>
        <mxCell id="oQEaSorUT63Bz6y4s9D--11" value="" style="edgeStyle=orthogonalEdgeStyle;rounded=0;orthogonalLoop=1;jettySize=auto;html=1;" edge="1" parent="1" source="oQEaSorUT63Bz6y4s9D--8" target="oQEaSorUT63Bz6y4s9D--10">
          <mxGeometry relative="1" as="geometry" />
        </mxCell>
        <mxCell id="oQEaSorUT63Bz6y4s9D--8" value="กำหนดตัวแปร&lt;span style=&quot;color: rgb(255, 255, 255); font-family: Consolas, &amp;quot;Courier New&amp;quot;, monospace; white-space: pre; background-color: rgb(30, 30, 30);&quot;&gt;พื้นที่สามเหลี่ยมเพื่อเก็บค่าที่คำนวณไว้&lt;/span&gt;" style="whiteSpace=wrap;html=1;" vertex="1" parent="1">
          <mxGeometry x="227.5" y="-2840" width="205" height="60" as="geometry" />
        </mxCell>
        <mxCell id="oQEaSorUT63Bz6y4s9D--13" value="" style="edgeStyle=orthogonalEdgeStyle;rounded=0;orthogonalLoop=1;jettySize=auto;html=1;" edge="1" parent="1" source="oQEaSorUT63Bz6y4s9D--10" target="oQEaSorUT63Bz6y4s9D--12">
          <mxGeometry relative="1" as="geometry" />
        </mxCell>
        <mxCell id="oQEaSorUT63Bz6y4s9D--10" value="แสดงค่าตัวแปรที่เก็บ&lt;span style=&quot;color: rgba(0, 0, 0, 0); font-family: monospace; font-size: 0px; text-align: start; text-wrap: nowrap;&quot;&gt;%3CmxGraphModel%3E%3Croot%3E%3CmxCell%20id%3D%220%22%2F%3E%3CmxCell%20id%3D%221%22%20parent%3D%220%22%2F%3E%3CmxCell%20id%3D%222%22%20value%3D%22%E0%B8%A3%E0%B8%B1%E0%B8%9A%E0%B8%84%E0%B9%88%E0%B8%B2%E0%B8%84%E0%B8%A7%E0%B8%B2%E0%B8%A1%E0%B8%AA%E0%B8%B9%E0%B8%87%E0%B9%81%E0%B8%A5%E0%B8%B0%E0%B8%A2%E0%B8%B2%E0%B8%A7%E0%B8%88%E0%B8%B2%E0%B8%81%E0%B8%9C%E0%B8%B9%E0%B9%89%E0%B9%83%E0%B8%8A%E0%B9%88%E0%B8%A1%E0%B8%B2%E0%B9%80%E0%B8%81%E0%B9%87%E0%B8%9A%E0%B9%83%E0%B8%99%E0%B8%95%E0%B8%B1%E0%B8%A7%E0%B9%81%E0%B8%9B%E0%B8%A3%22%20style%3D%22shape%3Dparallelogram%3Bperimeter%3DparallelogramPerimeter%3BwhiteSpace%3Dwrap%3Bhtml%3D1%3BfixedSize%3D1%3B%22%20vertex%3D%221%22%20parent%3D%221%22%3E%3CmxGeometry%20x%3D%22207.5%22%20y%3D%22-3100%22%20width%3D%22245%22%20height%3D%2260%22%20as%3D%22geometry%22%2F%3E%3C%2FmxCell%3E%3C%2Froot%3E%3C%2FmxGraphModel%3E&lt;/span&gt;&lt;span style=&quot;color: rgb(255, 255, 255); font-family: Consolas, &amp;quot;Courier New&amp;quot;, monospace; white-space: pre; background-color: rgb(30, 30, 30);&quot;&gt;พื้นที่สามเหลี่ยม&lt;/span&gt;" style="shape=parallelogram;perimeter=parallelogramPerimeter;whiteSpace=wrap;html=1;fixedSize=1;" vertex="1" parent="1">
          <mxGeometry x="207.5" y="-2700" width="245" height="60" as="geometry" />
        </mxCell>
        <mxCell id="oQEaSorUT63Bz6y4s9D--15" value="" style="edgeStyle=orthogonalEdgeStyle;rounded=0;orthogonalLoop=1;jettySize=auto;html=1;" edge="1" parent="1" source="oQEaSorUT63Bz6y4s9D--12" target="oQEaSorUT63Bz6y4s9D--14">
          <mxGeometry relative="1" as="geometry" />
        </mxCell>
        <mxCell id="oQEaSorUT63Bz6y4s9D--12" value="&lt;div style=&quot;background-color: rgb(30, 30, 30); font-family: Consolas, &amp;quot;Courier New&amp;quot;, monospace; line-height: 27px; white-space: pre;&quot;&gt;&lt;font style=&quot;font-size: 12px;&quot; color=&quot;#ffffff&quot;&gt;Triagle Area : 7.5&lt;/font&gt;&lt;/div&gt;" style="shape=parallelogram;perimeter=parallelogramPerimeter;whiteSpace=wrap;html=1;fixedSize=1;" vertex="1" parent="1">
          <mxGeometry x="207.5" y="-2560" width="245" height="60" as="geometry" />
        </mxCell>
        <mxCell id="oQEaSorUT63Bz6y4s9D--14" value="จบ" style="ellipse;whiteSpace=wrap;html=1;fillColor=default;strokeWidth=1;" vertex="1" parent="1">
          <mxGeometry x="240" y="-2450" width="180" height="80" as="geometry" />
        </mxCell>
      </root>
    </mxGraphModel>
  </diagram>
</mxfile>
